<mxfile host="app.diagrams.net" modified="2023-04-17T14:12:57.737Z" agent="Mozilla/5.0 (Windows NT 10.0; Win64; x64) AppleWebKit/537.36 (KHTML, like Gecko) Chrome/111.0.0.0 Safari/537.36" etag="56Ouawcm0jl-K5BAtCnh" version="21.1.5" type="github">
  <diagram name="Страница 1" id="kWP3zgt1ypsPh4jFY-ll">
    <mxGraphModel dx="1050" dy="1742" grid="1" gridSize="10" guides="1" tooltips="1" connect="1" arrows="1" fold="1" page="1" pageScale="1" pageWidth="827" pageHeight="1169" math="0" shadow="0">
      <root>
        <mxCell id="0" />
        <mxCell id="1" parent="0" />
        <mxCell id="bmVKMF65z-sTZCMKkPs4-1" value="Пользователь DSL" style="swimlane;html=1;startSize=20;" parent="1" vertex="1">
          <mxGeometry x="415" y="10" width="320" height="700" as="geometry" />
        </mxCell>
        <mxCell id="bmVKMF65z-sTZCMKkPs4-16" value="" style="ellipse;whiteSpace=wrap;html=1;rounded=0;shadow=0;comic=0;labelBackgroundColor=none;strokeWidth=1;fillColor=#000000;fontFamily=Verdana;fontSize=12;align=center;" parent="bmVKMF65z-sTZCMKkPs4-1" vertex="1">
          <mxGeometry x="145.5" y="30" width="30" height="30" as="geometry" />
        </mxCell>
        <mxCell id="bmVKMF65z-sTZCMKkPs4-17" value="" style="endArrow=classic;html=1;rounded=0;exitX=0.5;exitY=1;exitDx=0;exitDy=0;entryX=0.5;entryY=0;entryDx=0;entryDy=0;" parent="bmVKMF65z-sTZCMKkPs4-1" source="bmVKMF65z-sTZCMKkPs4-16" target="bmVKMF65z-sTZCMKkPs4-32" edge="1">
          <mxGeometry width="50" height="50" relative="1" as="geometry">
            <mxPoint x="120.5" y="320" as="sourcePoint" />
            <mxPoint x="256" y="90" as="targetPoint" />
          </mxGeometry>
        </mxCell>
        <mxCell id="bmVKMF65z-sTZCMKkPs4-31" style="edgeStyle=orthogonalEdgeStyle;rounded=0;orthogonalLoop=1;jettySize=auto;html=1;exitX=0.5;exitY=1;exitDx=0;exitDy=0;entryX=0.5;entryY=0;entryDx=0;entryDy=0;" parent="bmVKMF65z-sTZCMKkPs4-1" source="bmVKMF65z-sTZCMKkPs4-18" target="bmVKMF65z-sTZCMKkPs4-29" edge="1">
          <mxGeometry relative="1" as="geometry" />
        </mxCell>
        <mxCell id="bmVKMF65z-sTZCMKkPs4-18" value="Построить AST (запустить build_ast.py)" style="rounded=1;whiteSpace=wrap;html=1;fillColor=#ffe6cc;strokeColor=#d79b00;" parent="bmVKMF65z-sTZCMKkPs4-1" vertex="1">
          <mxGeometry x="100.5" y="220" width="120" height="60" as="geometry" />
        </mxCell>
        <mxCell id="bmVKMF65z-sTZCMKkPs4-19" value="" style="rounded=0;whiteSpace=wrap;html=1;fillColor=#ffe6cc;strokeColor=#d79b00;" parent="bmVKMF65z-sTZCMKkPs4-1" vertex="1">
          <mxGeometry x="190.75" y="200" width="20" height="20" as="geometry" />
        </mxCell>
        <mxCell id="bmVKMF65z-sTZCMKkPs4-20" value="" style="rounded=0;whiteSpace=wrap;html=1;fillColor=#ffe6cc;strokeColor=#d79b00;" parent="bmVKMF65z-sTZCMKkPs4-1" vertex="1">
          <mxGeometry x="80.5" y="240" width="20" height="20" as="geometry" />
        </mxCell>
        <mxCell id="bmVKMF65z-sTZCMKkPs4-21" value="" style="rounded=0;whiteSpace=wrap;html=1;fillColor=#ffe6cc;strokeColor=#d79b00;" parent="bmVKMF65z-sTZCMKkPs4-1" vertex="1">
          <mxGeometry x="220.5" y="250" width="20" height="20" as="geometry" />
        </mxCell>
        <mxCell id="bmVKMF65z-sTZCMKkPs4-27" value="AST" style="rounded=0;whiteSpace=wrap;html=1;fillColor=#ffe6cc;strokeColor=#d79b00;" parent="bmVKMF65z-sTZCMKkPs4-1" vertex="1">
          <mxGeometry x="185.5" y="330" width="90" height="20" as="geometry" />
        </mxCell>
        <mxCell id="bmVKMF65z-sTZCMKkPs4-28" value="" style="endArrow=classic;html=1;rounded=0;entryX=0.5;entryY=0;entryDx=0;entryDy=0;exitX=0.5;exitY=1;exitDx=0;exitDy=0;strokeColor=#0000FF;" parent="bmVKMF65z-sTZCMKkPs4-1" source="bmVKMF65z-sTZCMKkPs4-21" target="bmVKMF65z-sTZCMKkPs4-27" edge="1">
          <mxGeometry width="50" height="50" relative="1" as="geometry">
            <mxPoint x="120.5" y="310" as="sourcePoint" />
            <mxPoint x="170.5" y="260" as="targetPoint" />
            <Array as="points">
              <mxPoint x="230.5" y="300" />
            </Array>
          </mxGeometry>
        </mxCell>
        <mxCell id="bmVKMF65z-sTZCMKkPs4-29" value="" style="ellipse;whiteSpace=wrap;html=1;aspect=fixed;" parent="bmVKMF65z-sTZCMKkPs4-1" vertex="1">
          <mxGeometry x="145.5" y="350" width="30" height="30" as="geometry" />
        </mxCell>
        <mxCell id="bmVKMF65z-sTZCMKkPs4-30" value="" style="ellipse;whiteSpace=wrap;html=1;aspect=fixed;fillColor=#000000;" parent="bmVKMF65z-sTZCMKkPs4-1" vertex="1">
          <mxGeometry x="151.75" y="356.25" width="17.5" height="17.5" as="geometry" />
        </mxCell>
        <mxCell id="bmVKMF65z-sTZCMKkPs4-38" style="edgeStyle=orthogonalEdgeStyle;rounded=0;orthogonalLoop=1;jettySize=auto;html=1;exitX=0.5;exitY=1;exitDx=0;exitDy=0;" parent="bmVKMF65z-sTZCMKkPs4-1" source="bmVKMF65z-sTZCMKkPs4-32" target="bmVKMF65z-sTZCMKkPs4-18" edge="1">
          <mxGeometry relative="1" as="geometry" />
        </mxCell>
        <mxCell id="bmVKMF65z-sTZCMKkPs4-32" value="Написать программу на DSL" style="rounded=1;whiteSpace=wrap;html=1;fillColor=#ffe6cc;strokeColor=#d79b00;" parent="bmVKMF65z-sTZCMKkPs4-1" vertex="1">
          <mxGeometry x="110.25" y="80" width="100.5" height="60" as="geometry" />
        </mxCell>
        <mxCell id="bmVKMF65z-sTZCMKkPs4-39" style="edgeStyle=orthogonalEdgeStyle;rounded=0;orthogonalLoop=1;jettySize=auto;html=1;exitX=0.5;exitY=1;exitDx=0;exitDy=0;entryX=0.5;entryY=0;entryDx=0;entryDy=0;strokeColor=#0000FF;" parent="bmVKMF65z-sTZCMKkPs4-1" source="bmVKMF65z-sTZCMKkPs4-34" target="bmVKMF65z-sTZCMKkPs4-19" edge="1">
          <mxGeometry relative="1" as="geometry" />
        </mxCell>
        <mxCell id="bmVKMF65z-sTZCMKkPs4-34" value="" style="rounded=0;whiteSpace=wrap;html=1;fillColor=#ffe6cc;strokeColor=#d79b00;" parent="bmVKMF65z-sTZCMKkPs4-1" vertex="1">
          <mxGeometry x="210.75" y="100" width="20" height="20" as="geometry" />
        </mxCell>
        <mxCell id="bmVKMF65z-sTZCMKkPs4-40" value="Код программы" style="text;html=1;strokeColor=none;fillColor=none;align=center;verticalAlign=middle;whiteSpace=wrap;rounded=0;" parent="bmVKMF65z-sTZCMKkPs4-1" vertex="1">
          <mxGeometry x="230.75" y="140" width="60" height="30" as="geometry" />
        </mxCell>
        <mxCell id="bmVKMF65z-sTZCMKkPs4-270" style="edgeStyle=orthogonalEdgeStyle;rounded=0;orthogonalLoop=1;jettySize=auto;html=1;exitX=1;exitY=0.5;exitDx=0;exitDy=0;entryX=0.5;entryY=1;entryDx=0;entryDy=0;strokeColor=#0000FF;" parent="bmVKMF65z-sTZCMKkPs4-1" source="bmVKMF65z-sTZCMKkPs4-22" target="bmVKMF65z-sTZCMKkPs4-20" edge="1">
          <mxGeometry relative="1" as="geometry" />
        </mxCell>
        <mxCell id="bmVKMF65z-sTZCMKkPs4-22" value="json файл" style="rounded=0;whiteSpace=wrap;html=1;fillColor=#ffe6cc;strokeColor=#d79b00;" parent="bmVKMF65z-sTZCMKkPs4-1" vertex="1">
          <mxGeometry x="-40" y="577.5" width="90" height="30" as="geometry" />
        </mxCell>
        <mxCell id="bmVKMF65z-sTZCMKkPs4-69" value="Пользователь программы" style="swimlane;html=1;startSize=20;fillStyle=auto;" parent="1" vertex="1">
          <mxGeometry x="735" y="10" width="280" height="700" as="geometry" />
        </mxCell>
        <mxCell id="bmVKMF65z-sTZCMKkPs4-134" style="edgeStyle=orthogonalEdgeStyle;rounded=0;orthogonalLoop=1;jettySize=auto;html=1;exitX=0.5;exitY=1;exitDx=0;exitDy=0;entryX=0.5;entryY=0;entryDx=0;entryDy=0;" parent="bmVKMF65z-sTZCMKkPs4-69" source="bmVKMF65z-sTZCMKkPs4-125" target="bmVKMF65z-sTZCMKkPs4-128" edge="1">
          <mxGeometry relative="1" as="geometry" />
        </mxCell>
        <mxCell id="bmVKMF65z-sTZCMKkPs4-125" value="Передать AST в файл с заданной семантикой" style="rounded=1;whiteSpace=wrap;html=1;fillColor=#ffe6cc;strokeColor=#d79b00;" parent="bmVKMF65z-sTZCMKkPs4-69" vertex="1">
          <mxGeometry x="80" y="160" width="120" height="60" as="geometry" />
        </mxCell>
        <mxCell id="bmVKMF65z-sTZCMKkPs4-133" style="edgeStyle=orthogonalEdgeStyle;rounded=0;orthogonalLoop=1;jettySize=auto;html=1;exitX=0.5;exitY=1;exitDx=0;exitDy=0;" parent="bmVKMF65z-sTZCMKkPs4-69" source="bmVKMF65z-sTZCMKkPs4-126" target="bmVKMF65z-sTZCMKkPs4-125" edge="1">
          <mxGeometry relative="1" as="geometry" />
        </mxCell>
        <mxCell id="bmVKMF65z-sTZCMKkPs4-126" value="" style="ellipse;whiteSpace=wrap;html=1;rounded=0;shadow=0;comic=0;labelBackgroundColor=none;strokeWidth=1;fillColor=#000000;fontFamily=Verdana;fontSize=12;align=center;" parent="bmVKMF65z-sTZCMKkPs4-69" vertex="1">
          <mxGeometry x="125" y="30" width="30" height="30" as="geometry" />
        </mxCell>
        <mxCell id="bmVKMF65z-sTZCMKkPs4-128" value="" style="ellipse;whiteSpace=wrap;html=1;aspect=fixed;" parent="bmVKMF65z-sTZCMKkPs4-69" vertex="1">
          <mxGeometry x="125" y="340" width="30" height="30" as="geometry" />
        </mxCell>
        <mxCell id="bmVKMF65z-sTZCMKkPs4-129" value="" style="ellipse;whiteSpace=wrap;html=1;aspect=fixed;fillColor=#000000;" parent="bmVKMF65z-sTZCMKkPs4-69" vertex="1">
          <mxGeometry x="131.25" y="346.25" width="17.5" height="17.5" as="geometry" />
        </mxCell>
        <mxCell id="bmVKMF65z-sTZCMKkPs4-130" value="" style="rounded=0;whiteSpace=wrap;html=1;fillColor=#ffe6cc;strokeColor=#d79b00;" parent="bmVKMF65z-sTZCMKkPs4-69" vertex="1">
          <mxGeometry x="80" y="140" width="20" height="20" as="geometry" />
        </mxCell>
        <mxCell id="bmVKMF65z-sTZCMKkPs4-131" value="" style="rounded=0;whiteSpace=wrap;html=1;fillColor=#ffe6cc;strokeColor=#d79b00;" parent="bmVKMF65z-sTZCMKkPs4-69" vertex="1">
          <mxGeometry x="60" y="190" width="20" height="20" as="geometry" />
        </mxCell>
        <mxCell id="bmVKMF65z-sTZCMKkPs4-132" style="edgeStyle=orthogonalEdgeStyle;rounded=0;orthogonalLoop=1;jettySize=auto;html=1;exitX=1;exitY=0.5;exitDx=0;exitDy=0;entryX=0;entryY=0.5;entryDx=0;entryDy=0;strokeColor=#0000FF;" parent="1" source="bmVKMF65z-sTZCMKkPs4-27" target="bmVKMF65z-sTZCMKkPs4-130" edge="1">
          <mxGeometry relative="1" as="geometry" />
        </mxCell>
        <mxCell id="bmVKMF65z-sTZCMKkPs4-135" value="Создатель DSL" style="swimlane;html=1;startSize=20;" parent="1" vertex="1">
          <mxGeometry x="35" y="10" width="380" height="700" as="geometry" />
        </mxCell>
        <mxCell id="bmVKMF65z-sTZCMKkPs4-150" style="edgeStyle=orthogonalEdgeStyle;rounded=0;orthogonalLoop=1;jettySize=auto;html=1;exitX=0.5;exitY=1;exitDx=0;exitDy=0;entryX=0.5;entryY=0;entryDx=0;entryDy=0;" parent="bmVKMF65z-sTZCMKkPs4-135" source="bmVKMF65z-sTZCMKkPs4-148" target="bmVKMF65z-sTZCMKkPs4-149" edge="1">
          <mxGeometry relative="1" as="geometry" />
        </mxCell>
        <mxCell id="bmVKMF65z-sTZCMKkPs4-148" value="" style="ellipse;whiteSpace=wrap;html=1;rounded=0;shadow=0;comic=0;labelBackgroundColor=none;strokeWidth=1;fillColor=#000000;fontFamily=Verdana;fontSize=12;align=center;" parent="bmVKMF65z-sTZCMKkPs4-135" vertex="1">
          <mxGeometry x="145" y="30" width="30" height="30" as="geometry" />
        </mxCell>
        <mxCell id="bmVKMF65z-sTZCMKkPs4-152" style="edgeStyle=orthogonalEdgeStyle;rounded=0;orthogonalLoop=1;jettySize=auto;html=1;exitX=0;exitY=0.5;exitDx=0;exitDy=0;entryX=0.5;entryY=0;entryDx=0;entryDy=0;" parent="bmVKMF65z-sTZCMKkPs4-135" source="bmVKMF65z-sTZCMKkPs4-149" target="bmVKMF65z-sTZCMKkPs4-151" edge="1">
          <mxGeometry relative="1" as="geometry" />
        </mxCell>
        <mxCell id="bmVKMF65z-sTZCMKkPs4-154" style="edgeStyle=orthogonalEdgeStyle;rounded=0;orthogonalLoop=1;jettySize=auto;html=1;exitX=1;exitY=0.5;exitDx=0;exitDy=0;entryX=0.5;entryY=0;entryDx=0;entryDy=0;" parent="bmVKMF65z-sTZCMKkPs4-135" source="bmVKMF65z-sTZCMKkPs4-149" target="bmVKMF65z-sTZCMKkPs4-153" edge="1">
          <mxGeometry relative="1" as="geometry" />
        </mxCell>
        <mxCell id="bmVKMF65z-sTZCMKkPs4-149" value="" style="rhombus;whiteSpace=wrap;html=1;fillColor=#CCCCCC;" parent="bmVKMF65z-sTZCMKkPs4-135" vertex="1">
          <mxGeometry x="135" y="80" width="50" height="30" as="geometry" />
        </mxCell>
        <mxCell id="bmVKMF65z-sTZCMKkPs4-156" style="edgeStyle=orthogonalEdgeStyle;rounded=0;orthogonalLoop=1;jettySize=auto;html=1;exitX=0.5;exitY=1;exitDx=0;exitDy=0;entryX=0;entryY=0.5;entryDx=0;entryDy=0;" parent="bmVKMF65z-sTZCMKkPs4-135" source="bmVKMF65z-sTZCMKkPs4-151" target="bmVKMF65z-sTZCMKkPs4-155" edge="1">
          <mxGeometry relative="1" as="geometry" />
        </mxCell>
        <mxCell id="bmVKMF65z-sTZCMKkPs4-151" value="Задать грамматику в РБНФ" style="rounded=1;whiteSpace=wrap;html=1;fillColor=#ffe6cc;strokeColor=#d79b00;" parent="bmVKMF65z-sTZCMKkPs4-135" vertex="1">
          <mxGeometry x="15" y="120" width="115" height="40" as="geometry" />
        </mxCell>
        <mxCell id="bmVKMF65z-sTZCMKkPs4-157" style="edgeStyle=orthogonalEdgeStyle;rounded=0;orthogonalLoop=1;jettySize=auto;html=1;exitX=0.5;exitY=1;exitDx=0;exitDy=0;entryX=1;entryY=0.5;entryDx=0;entryDy=0;" parent="bmVKMF65z-sTZCMKkPs4-135" source="bmVKMF65z-sTZCMKkPs4-153" target="bmVKMF65z-sTZCMKkPs4-155" edge="1">
          <mxGeometry relative="1" as="geometry" />
        </mxCell>
        <mxCell id="bmVKMF65z-sTZCMKkPs4-153" value="Задать грамматику диаграммами Вирта" style="rounded=1;whiteSpace=wrap;html=1;fillColor=#ffe6cc;strokeColor=#d79b00;" parent="bmVKMF65z-sTZCMKkPs4-135" vertex="1">
          <mxGeometry x="185" y="120" width="125" height="40" as="geometry" />
        </mxCell>
        <mxCell id="bmVKMF65z-sTZCMKkPs4-264" style="edgeStyle=orthogonalEdgeStyle;rounded=0;orthogonalLoop=1;jettySize=auto;html=1;exitX=0.5;exitY=1;exitDx=0;exitDy=0;entryX=0.5;entryY=0;entryDx=0;entryDy=0;" parent="bmVKMF65z-sTZCMKkPs4-135" source="bmVKMF65z-sTZCMKkPs4-155" target="bmVKMF65z-sTZCMKkPs4-160" edge="1">
          <mxGeometry relative="1" as="geometry" />
        </mxCell>
        <mxCell id="bmVKMF65z-sTZCMKkPs4-155" value="" style="rhombus;whiteSpace=wrap;html=1;fillColor=#CCCCCC;" parent="bmVKMF65z-sTZCMKkPs4-135" vertex="1">
          <mxGeometry x="135" y="170" width="50" height="30" as="geometry" />
        </mxCell>
        <mxCell id="bmVKMF65z-sTZCMKkPs4-273" style="edgeStyle=orthogonalEdgeStyle;rounded=0;orthogonalLoop=1;jettySize=auto;html=1;exitX=1;exitY=0.5;exitDx=0;exitDy=0;entryX=0.5;entryY=0;entryDx=0;entryDy=0;strokeColor=#0000FF;" parent="bmVKMF65z-sTZCMKkPs4-135" source="bmVKMF65z-sTZCMKkPs4-158" target="bmVKMF65z-sTZCMKkPs4-180" edge="1">
          <mxGeometry relative="1" as="geometry" />
        </mxCell>
        <mxCell id="bmVKMF65z-sTZCMKkPs4-158" value="" style="rounded=0;whiteSpace=wrap;html=1;fillColor=#ffe6cc;strokeColor=#d79b00;" parent="bmVKMF65z-sTZCMKkPs4-135" vertex="1">
          <mxGeometry x="15" y="160" width="20" height="20" as="geometry" />
        </mxCell>
        <mxCell id="bmVKMF65z-sTZCMKkPs4-159" value="" style="rounded=0;whiteSpace=wrap;html=1;fillColor=#ffe6cc;strokeColor=#d79b00;" parent="bmVKMF65z-sTZCMKkPs4-135" vertex="1">
          <mxGeometry x="280" y="100" width="20" height="20" as="geometry" />
        </mxCell>
        <mxCell id="bmVKMF65z-sTZCMKkPs4-164" style="edgeStyle=orthogonalEdgeStyle;rounded=0;orthogonalLoop=1;jettySize=auto;html=1;exitX=0.5;exitY=1;exitDx=0;exitDy=0;" parent="bmVKMF65z-sTZCMKkPs4-135" source="bmVKMF65z-sTZCMKkPs4-160" target="bmVKMF65z-sTZCMKkPs4-163" edge="1">
          <mxGeometry relative="1" as="geometry" />
        </mxCell>
        <mxCell id="bmVKMF65z-sTZCMKkPs4-160" value="Задать обработку токенов" style="rounded=1;whiteSpace=wrap;html=1;fillColor=#ffe6cc;strokeColor=#d79b00;" parent="bmVKMF65z-sTZCMKkPs4-135" vertex="1">
          <mxGeometry x="105" y="250" width="110" height="40" as="geometry" />
        </mxCell>
        <mxCell id="bmVKMF65z-sTZCMKkPs4-274" style="edgeStyle=orthogonalEdgeStyle;rounded=0;orthogonalLoop=1;jettySize=auto;html=1;exitX=1;exitY=0.5;exitDx=0;exitDy=0;entryX=0;entryY=0.5;entryDx=0;entryDy=0;strokeColor=#0000FF;" parent="bmVKMF65z-sTZCMKkPs4-135" source="bmVKMF65z-sTZCMKkPs4-162" target="bmVKMF65z-sTZCMKkPs4-253" edge="1">
          <mxGeometry relative="1" as="geometry" />
        </mxCell>
        <mxCell id="bmVKMF65z-sTZCMKkPs4-162" value="" style="rounded=0;whiteSpace=wrap;html=1;fillColor=#ffe6cc;strokeColor=#d79b00;" parent="bmVKMF65z-sTZCMKkPs4-135" vertex="1">
          <mxGeometry x="215" y="260" width="20" height="20" as="geometry" />
        </mxCell>
        <mxCell id="bmVKMF65z-sTZCMKkPs4-163" value="Задать атрибуты нетерминалов" style="rounded=1;whiteSpace=wrap;html=1;fillColor=#ffe6cc;strokeColor=#d79b00;" parent="bmVKMF65z-sTZCMKkPs4-135" vertex="1">
          <mxGeometry x="105" y="320" width="110" height="40" as="geometry" />
        </mxCell>
        <mxCell id="bmVKMF65z-sTZCMKkPs4-261" style="edgeStyle=orthogonalEdgeStyle;rounded=0;orthogonalLoop=1;jettySize=auto;html=1;exitX=1;exitY=0.5;exitDx=0;exitDy=0;entryX=0;entryY=0.5;entryDx=0;entryDy=0;strokeColor=#0000FF;" parent="bmVKMF65z-sTZCMKkPs4-135" source="bmVKMF65z-sTZCMKkPs4-166" target="bmVKMF65z-sTZCMKkPs4-254" edge="1">
          <mxGeometry relative="1" as="geometry" />
        </mxCell>
        <mxCell id="bmVKMF65z-sTZCMKkPs4-166" value="" style="rounded=0;whiteSpace=wrap;html=1;fillColor=#ffe6cc;strokeColor=#d79b00;" parent="bmVKMF65z-sTZCMKkPs4-135" vertex="1">
          <mxGeometry x="215" y="330" width="20" height="20" as="geometry" />
        </mxCell>
        <mxCell id="bmVKMF65z-sTZCMKkPs4-172" value="" style="rounded=0;whiteSpace=wrap;html=1;fillColor=#ffe6cc;strokeColor=#d79b00;" parent="bmVKMF65z-sTZCMKkPs4-135" vertex="1">
          <mxGeometry x="225" y="495" width="20" height="20" as="geometry" />
        </mxCell>
        <mxCell id="bmVKMF65z-sTZCMKkPs4-178" style="edgeStyle=orthogonalEdgeStyle;rounded=0;orthogonalLoop=1;jettySize=auto;html=1;exitX=0.5;exitY=1;exitDx=0;exitDy=0;entryX=0.5;entryY=0;entryDx=0;entryDy=0;" parent="bmVKMF65z-sTZCMKkPs4-135" source="bmVKMF65z-sTZCMKkPs4-173" target="bmVKMF65z-sTZCMKkPs4-175" edge="1">
          <mxGeometry relative="1" as="geometry" />
        </mxCell>
        <mxCell id="bmVKMF65z-sTZCMKkPs4-173" value="Задать семантику&lt;br&gt;(описать обход AST на Python)" style="rounded=1;whiteSpace=wrap;html=1;fillColor=#ffe6cc;strokeColor=#d79b00;" parent="bmVKMF65z-sTZCMKkPs4-135" vertex="1">
          <mxGeometry x="100" y="480" width="125" height="50" as="geometry" />
        </mxCell>
        <mxCell id="bmVKMF65z-sTZCMKkPs4-175" value="Описать пути и другие параметры в json" style="rounded=1;whiteSpace=wrap;html=1;fillColor=#ffe6cc;strokeColor=#d79b00;" parent="bmVKMF65z-sTZCMKkPs4-135" vertex="1">
          <mxGeometry x="102.5" y="565" width="127.5" height="55" as="geometry" />
        </mxCell>
        <mxCell id="bmVKMF65z-sTZCMKkPs4-174" value="" style="rounded=0;whiteSpace=wrap;html=1;fillColor=#ffe6cc;strokeColor=#d79b00;" parent="bmVKMF65z-sTZCMKkPs4-135" vertex="1">
          <mxGeometry x="230" y="582.5" width="20" height="20" as="geometry" />
        </mxCell>
        <mxCell id="bmVKMF65z-sTZCMKkPs4-180" value="Файл grammar.rbnf&amp;nbsp;" style="rounded=0;whiteSpace=wrap;html=1;fillColor=#ffe6cc;strokeColor=#d79b00;" parent="bmVKMF65z-sTZCMKkPs4-135" vertex="1">
          <mxGeometry x="10" y="210" width="90" height="30" as="geometry" />
        </mxCell>
        <mxCell id="bmVKMF65z-sTZCMKkPs4-214" value="dot диаграммы" style="rounded=0;whiteSpace=wrap;html=1;fillColor=#ffe6cc;strokeColor=#d79b00;" parent="bmVKMF65z-sTZCMKkPs4-135" vertex="1">
          <mxGeometry x="245" y="40" width="90" height="30" as="geometry" />
        </mxCell>
        <mxCell id="bmVKMF65z-sTZCMKkPs4-215" style="edgeStyle=orthogonalEdgeStyle;rounded=0;orthogonalLoop=1;jettySize=auto;html=1;exitX=0.5;exitY=0;exitDx=0;exitDy=0;entryX=0.5;entryY=1;entryDx=0;entryDy=0;strokeColor=#0000FF;" parent="bmVKMF65z-sTZCMKkPs4-135" target="bmVKMF65z-sTZCMKkPs4-214" edge="1">
          <mxGeometry relative="1" as="geometry">
            <mxPoint x="290" y="100.00000000000011" as="sourcePoint" />
          </mxGeometry>
        </mxCell>
        <mxCell id="bmVKMF65z-sTZCMKkPs4-252" style="edgeStyle=orthogonalEdgeStyle;rounded=0;orthogonalLoop=1;jettySize=auto;html=1;exitX=1;exitY=0.5;exitDx=0;exitDy=0;entryX=0.5;entryY=0;entryDx=0;entryDy=0;strokeColor=#0000FF;" parent="bmVKMF65z-sTZCMKkPs4-135" source="bmVKMF65z-sTZCMKkPs4-217" target="bmVKMF65z-sTZCMKkPs4-251" edge="1">
          <mxGeometry relative="1" as="geometry" />
        </mxCell>
        <mxCell id="bmVKMF65z-sTZCMKkPs4-217" value="" style="rounded=0;whiteSpace=wrap;html=1;fillColor=#ffe6cc;strokeColor=#d79b00;" parent="bmVKMF65z-sTZCMKkPs4-135" vertex="1">
          <mxGeometry x="280" y="160" width="20" height="20" as="geometry" />
        </mxCell>
        <mxCell id="bmVKMF65z-sTZCMKkPs4-251" value="info.sgi файл" style="rounded=0;whiteSpace=wrap;html=1;fillColor=#ffe6cc;strokeColor=#d79b00;" parent="bmVKMF65z-sTZCMKkPs4-135" vertex="1">
          <mxGeometry x="247.5" y="200" width="90" height="30" as="geometry" />
        </mxCell>
        <mxCell id="bmVKMF65z-sTZCMKkPs4-253" value="afterscan.py" style="rounded=0;whiteSpace=wrap;html=1;fillColor=#ffe6cc;strokeColor=#d79b00;" parent="bmVKMF65z-sTZCMKkPs4-135" vertex="1">
          <mxGeometry x="280" y="255" width="90" height="30" as="geometry" />
        </mxCell>
        <mxCell id="bmVKMF65z-sTZCMKkPs4-254" value="attribute_evaluator.py" style="rounded=0;whiteSpace=wrap;html=1;fillColor=#ffe6cc;strokeColor=#d79b00;" parent="bmVKMF65z-sTZCMKkPs4-135" vertex="1">
          <mxGeometry x="250" y="322.5" width="120" height="35" as="geometry" />
        </mxCell>
        <mxCell id="bmVKMF65z-sTZCMKkPs4-256" value="файл semantics.py" style="rounded=0;whiteSpace=wrap;html=1;fillColor=#ffe6cc;strokeColor=#d79b00;" parent="bmVKMF65z-sTZCMKkPs4-135" vertex="1">
          <mxGeometry x="337.5" y="490" width="90" height="30" as="geometry" />
        </mxCell>
        <mxCell id="bmVKMF65z-sTZCMKkPs4-268" style="edgeStyle=orthogonalEdgeStyle;rounded=0;orthogonalLoop=1;jettySize=auto;html=1;exitX=1;exitY=0.5;exitDx=0;exitDy=0;entryX=0;entryY=0.5;entryDx=0;entryDy=0;strokeColor=#0000FF;" parent="bmVKMF65z-sTZCMKkPs4-135" source="bmVKMF65z-sTZCMKkPs4-172" target="bmVKMF65z-sTZCMKkPs4-256" edge="1">
          <mxGeometry relative="1" as="geometry" />
        </mxCell>
        <mxCell id="bmVKMF65z-sTZCMKkPs4-179" style="edgeStyle=orthogonalEdgeStyle;rounded=0;orthogonalLoop=1;jettySize=auto;html=1;exitX=1;exitY=0.5;exitDx=0;exitDy=0;entryX=0;entryY=0.5;entryDx=0;entryDy=0;strokeColor=#0000FF;" parent="1" source="bmVKMF65z-sTZCMKkPs4-174" target="bmVKMF65z-sTZCMKkPs4-22" edge="1">
          <mxGeometry relative="1" as="geometry" />
        </mxCell>
        <mxCell id="bmVKMF65z-sTZCMKkPs4-269" style="edgeStyle=orthogonalEdgeStyle;rounded=0;orthogonalLoop=1;jettySize=auto;html=1;exitX=1;exitY=0.5;exitDx=0;exitDy=0;entryX=0.5;entryY=1;entryDx=0;entryDy=0;strokeColor=#0000FF;" parent="1" source="bmVKMF65z-sTZCMKkPs4-256" target="bmVKMF65z-sTZCMKkPs4-131" edge="1">
          <mxGeometry relative="1" as="geometry" />
        </mxCell>
        <mxCell id="bmVKMF65z-sTZCMKkPs4-276" value="&lt;b&gt;&lt;font style=&quot;font-size: 14px;&quot;&gt;Диаграмма деятельности&lt;/font&gt;&lt;/b&gt;" style="shape=umlFrame;whiteSpace=wrap;html=1;pointerEvents=0;width=190;height=40;" parent="1" vertex="1">
          <mxGeometry x="20" y="-40" width="1010" height="770" as="geometry" />
        </mxCell>
        <mxCell id="bmVKMF65z-sTZCMKkPs4-278" value="" style="ellipse;whiteSpace=wrap;html=1;aspect=fixed;" parent="1" vertex="1">
          <mxGeometry x="190" y="660" width="30" height="30" as="geometry" />
        </mxCell>
        <mxCell id="bmVKMF65z-sTZCMKkPs4-279" value="" style="ellipse;whiteSpace=wrap;html=1;aspect=fixed;fillColor=#000000;" parent="1" vertex="1">
          <mxGeometry x="196.25" y="666.25" width="17.5" height="17.5" as="geometry" />
        </mxCell>
        <mxCell id="bmVKMF65z-sTZCMKkPs4-280" style="edgeStyle=orthogonalEdgeStyle;rounded=0;orthogonalLoop=1;jettySize=auto;html=1;exitX=0.5;exitY=1;exitDx=0;exitDy=0;entryX=0.5;entryY=0;entryDx=0;entryDy=0;" parent="1" source="bmVKMF65z-sTZCMKkPs4-175" target="bmVKMF65z-sTZCMKkPs4-278" edge="1">
          <mxGeometry relative="1" as="geometry">
            <mxPoint x="197.5" y="669" as="targetPoint" />
          </mxGeometry>
        </mxCell>
        <mxCell id="bmVKMF65z-sTZCMKkPs4-281" value="contex.py" style="rounded=0;whiteSpace=wrap;html=1;fillColor=#ffe6cc;strokeColor=#d79b00;" parent="1" vertex="1">
          <mxGeometry x="317.5" y="405" width="90" height="30" as="geometry" />
        </mxCell>
        <mxCell id="bmVKMF65z-sTZCMKkPs4-284" style="edgeStyle=orthogonalEdgeStyle;rounded=0;orthogonalLoop=1;jettySize=auto;html=1;exitX=1;exitY=0.5;exitDx=0;exitDy=0;entryX=0;entryY=0.5;entryDx=0;entryDy=0;strokeColor=#2020ff;" parent="1" source="bmVKMF65z-sTZCMKkPs4-282" target="bmVKMF65z-sTZCMKkPs4-281" edge="1">
          <mxGeometry relative="1" as="geometry" />
        </mxCell>
        <mxCell id="bmVKMF65z-sTZCMKkPs4-282" value="" style="rounded=0;whiteSpace=wrap;html=1;fillColor=#ffe6cc;strokeColor=#d79b00;" parent="1" vertex="1">
          <mxGeometry x="252.5" y="410" width="20" height="20" as="geometry" />
        </mxCell>
        <mxCell id="bmVKMF65z-sTZCMKkPs4-286" style="edgeStyle=orthogonalEdgeStyle;rounded=0;orthogonalLoop=1;jettySize=auto;html=1;exitX=0.5;exitY=1;exitDx=0;exitDy=0;entryX=0.5;entryY=0;entryDx=0;entryDy=0;" parent="1" source="bmVKMF65z-sTZCMKkPs4-283" target="bmVKMF65z-sTZCMKkPs4-173" edge="1">
          <mxGeometry relative="1" as="geometry" />
        </mxCell>
        <mxCell id="bmVKMF65z-sTZCMKkPs4-283" value="Задать контекстные условия" style="rounded=1;whiteSpace=wrap;html=1;fillColor=#ffe6cc;strokeColor=#d79b00;" parent="1" vertex="1">
          <mxGeometry x="142.5" y="400" width="110" height="40" as="geometry" />
        </mxCell>
        <mxCell id="bmVKMF65z-sTZCMKkPs4-285" style="edgeStyle=orthogonalEdgeStyle;rounded=0;orthogonalLoop=1;jettySize=auto;html=1;exitX=0.5;exitY=1;exitDx=0;exitDy=0;entryX=0.5;entryY=0;entryDx=0;entryDy=0;" parent="1" source="bmVKMF65z-sTZCMKkPs4-163" target="bmVKMF65z-sTZCMKkPs4-283" edge="1">
          <mxGeometry relative="1" as="geometry" />
        </mxCell>
      </root>
    </mxGraphModel>
  </diagram>
</mxfile>
